<svg width="18" height="18" viewBox="0 0 18 18" fill="none" xmlns="http://www.w3.org/2000/svg">
<path d="M9.00211 1.89233C9.66449 1.89233 10.6835 4.72896 11.1303 6.07663C11.2674 6.49035 11.6474 6.77556 12.0829 6.79327C13.4891 6.85045 16.4362 7.05444 16.4362 7.75987C16.4362 8.45169 14.3576 10.1269 13.3048 10.9311C12.9535 11.1994 12.8073 11.6611 12.9404 12.0826C13.3636 13.4238 14.1679 16.2476 13.5976 16.7156C13.0391 17.1739 10.7677 15.5044 9.6328 14.6124C9.25123 14.3125 8.71043 14.3122 8.32879 14.612C7.19355 15.5038 4.92555 17.174 4.40667 16.7156C3.87562 16.2465 4.6397 13.41 5.03791 12.0728C5.16214 11.6557 5.01399 11.2034 4.66801 10.9393C3.61864 10.1384 1.52582 8.45406 1.52582 7.75987C1.52582 7.05341 4.48147 6.84986 5.88516 6.79302C6.31775 6.7755 6.69582 6.49409 6.83517 6.08419C7.29225 4.7396 8.3385 1.89233 9.00211 1.89233Z" fill="#00B9AE" stroke="#00B9AE" stroke-width="2" stroke-linecap="round" stroke-linejoin="round"/>
</svg>
